solid knee_bracket
  facet normal 0.000000 0.000000 -1.000000
    outer loop
      vertex -7.500000 -15.000000 -20.000000
      vertex 7.500000 15.000000 -20.000000
      vertex 7.500000 -15.000000 -20.000000
    endloop
  endfacet
  facet normal 0.000000 0.000000 -1.000000
    outer loop
      vertex -7.500000 -15.000000 -20.000000
      vertex -7.500000 15.000000 -20.000000
      vertex 7.500000 15.000000 -20.000000
    endloop
  endfacet
  facet normal 0.000000 0.000000 1.000000
    outer loop
      vertex -7.500000 -15.000000 20.000000
      vertex 7.500000 -15.000000 20.000000
      vertex 7.500000 15.000000 20.000000
    endloop
  endfacet
  facet normal 0.000000 0.000000 1.000000
    outer loop
      vertex -7.500000 -15.000000 20.000000
      vertex 7.500000 15.000000 20.000000
      vertex -7.500000 15.000000 20.000000
    endloop
  endfacet
  facet normal 0.000000 -1.000000 0.000000
    outer loop
      vertex -7.500000 -15.000000 -20.000000
      vertex 7.500000 -15.000000 -20.000000
      vertex 7.500000 -15.000000 20.000000
    endloop
  endfacet
  facet normal 0.000000 -1.000000 0.000000
    outer loop
      vertex -7.500000 -15.000000 -20.000000
      vertex 7.500000 -15.000000 20.000000
      vertex -7.500000 -15.000000 20.000000
    endloop
  endfacet
  facet normal 0.000000 1.000000 0.000000
    outer loop
      vertex 7.500000 15.000000 -20.000000
      vertex -7.500000 15.000000 -20.000000
      vertex -7.500000 15.000000 20.000000
    endloop
  endfacet
  facet normal 0.000000 1.000000 -0.000000
    outer loop
      vertex 7.500000 15.000000 -20.000000
      vertex -7.500000 15.000000 20.000000
      vertex 7.500000 15.000000 20.000000
    endloop
  endfacet
  facet normal -1.000000 0.000000 0.000000
    outer loop
      vertex -7.500000 -15.000000 -20.000000
      vertex -7.500000 -15.000000 20.000000
      vertex -7.500000 15.000000 20.000000
    endloop
  endfacet
  facet normal -1.000000 0.000000 0.000000
    outer loop
      vertex -7.500000 -15.000000 -20.000000
      vertex -7.500000 15.000000 20.000000
      vertex -7.500000 15.000000 -20.000000
    endloop
  endfacet
  facet normal 1.000000 0.000000 0.000000
    outer loop
      vertex 7.500000 -15.000000 -20.000000
      vertex 7.500000 15.000000 -20.000000
      vertex 7.500000 15.000000 20.000000
    endloop
  endfacet
  facet normal 1.000000 0.000000 0.000000
    outer loop
      vertex 7.500000 -15.000000 -20.000000
      vertex 7.500000 15.000000 20.000000
      vertex 7.500000 -15.000000 20.000000
    endloop
  endfacet
endsolid knee_bracket
